<svg xmlns="http://www.w3.org/2000/svg" id="Layer_1" data-name="Layer 1" viewBox="0 0 2014 512"><defs><style>.cls-1{fill:#fff;}.cls-2{fill:#0853ca;}.cls-3{fill:#2962ff;}</style></defs><title>Logo Skynix</title><path class="cls-1" d="M621.967,367.4q-27.126-6.993-43.225-17.586l22.035-47.463q15.258,9.754,36.869,15.892a154.442,154.442,0,0,0,42.377,6.144q41.953,0,41.955-20.765,0-9.744-11.442-13.984t-35.173-7.2q-27.97-4.232-46.191-9.746A71.639,71.639,0,0,1,597.6,253.2q-13.348-13.984-13.348-39.835a62.393,62.393,0,0,1,12.5-38.351q12.495-16.737,36.443-26.063t56.575-9.322a222.248,222.248,0,0,1,48.1,5.3q23.937,5.3,39.623,14.62l-22.037,47.039a131.611,131.611,0,0,0-65.684-16.951q-21.2,0-31.784,5.932T647.392,210.82q0,10.6,11.442,14.832t36.445,8.051q27.97,4.668,45.767,9.96a68.8,68.8,0,0,1,30.937,19.281q13.128,13.986,13.136,38.987A60.2,60.2,0,0,1,772.4,339.648q-12.712,16.527-37.079,25.639T677.48,374.4A221.4,221.4,0,0,1,621.967,367.4Z"/><path class="cls-1" d="M923.69,281.59l-31.783,31.359v58.057H825.8V56.566h66.11V234.551l96.621-91.535h78.822l-94.926,96.621,103.4,131.37H995.731Z"/><path class="cls-1" d="M1346.61,143.017,1243.633,384.991q-15.682,39.412-38.775,55.515t-55.727,16.1a115.883,115.883,0,0,1-35.173-5.508q-17.38-5.514-28.393-15.256l24.155-47.039a56.815,56.815,0,0,0,17.588,10.594,54.779,54.779,0,0,0,19.7,3.814q13.557,0,22.037-6.568t15.256-21.825l.846-2.118-98.739-229.686h68.228l63.99,154.678,64.414-154.678Z"/><path class="cls-1" d="M1580.743,165.053q26.062,25.426,26.061,75.432V371.007H1540.7V250.655q0-27.117-11.866-40.471T1494.5,196.836q-25.009,0-39.835,15.467t-14.832,45.981V371.007h-66.11V143.017h63.143v26.7a87.721,87.721,0,0,1,32.631-22.247,113.679,113.679,0,0,1,42.8-7.84Q1554.673,139.626,1580.743,165.053Z"/><path class="cls-1" d="M1669.946,100.639A34.354,34.354,0,0,1,1658.5,74.365a34.373,34.373,0,0,1,11.442-26.275q11.44-10.587,29.663-10.594t29.665,10.17a32.612,32.612,0,0,1,11.442,25.427q0,16.527-11.442,27.334t-29.665,10.806Q1681.383,111.234,1669.946,100.639Zm-3.392,42.377h66.11v227.99h-66.11Z"/><path class="cls-1" d="M1939.039,371.007l-50.005-69.922-51.7,69.922h-72.04l87.72-114.843-84.754-113.147h74.16l48.309,66.532,49.583-66.532h70.346L1925.9,254.469l88.144,116.537Z"/><path class="cls-2" d="M305.139,280.716c12.434-1.776,22.074-2.41,34.049,1.63A73.871,73.871,0,0,1,369.064,301.6c8.458,8.954,16.961,22.576,19.813,34.569,3.2,13.438,3.435,27.736,1.877,41.412-2.886,25.349-15.387,50.339-31.1,70.26-15.273,19.362-35.339,35.975-57.53,46.732-25.549,12.386-55.621,15.392-83.883,14.344a34.719,34.719,0,0,1-5.682-.479A163.182,163.182,0,0,0,311.2,342.183a161.644,161.644,0,0,0-6.116-30.868q-2.238-7.408-5.182-14.578-1.4-3.4-2.95-6.74c-.907-1.951-2.619-4.609-3.139-6.687l4.626-1.464Z"/><path class="cls-2" d="M206.213,231.283c-12.434,1.776-22.074,2.41-34.049-1.63A73.871,73.871,0,0,1,142.288,210.4c-8.458-8.954-16.961-22.576-19.813-34.569-3.2-13.438-3.435-27.736-1.877-41.412,2.886-25.349,15.387-50.339,31.1-70.26,15.273-19.362,35.339-35.975,57.53-46.732C234.778,5.038,264.849,2.031,293.111,3.079a34.719,34.719,0,0,1,5.682.479A163.182,163.182,0,0,0,200.15,169.816a161.644,161.644,0,0,0,6.116,30.868q2.238,7.408,5.182,14.578,1.4,3.4,2.95,6.74c.907,1.951,2.619,4.609,3.139,6.687l-4.626,1.464Z"/><path class="cls-2" d="M511.351,260.225v.019q.029,2.465,0,4.931-.116,7.687-.754,15.354a233.772,233.772,0,0,1-5.646,36.993A256.1,256.1,0,0,1,288.679,509.969q-11.428,1.45-22.934,1.837c-.774.019-1.547.058-2.321.077-.908.039-1.837.058-2.746.077-1.624.039-3.229.039-4.854.039-1.876,0-3.751-.019-5.646-.077-6.092-.135-12.183-.5-18.255-1.064-5.608-.541-11.216-1.238-16.766-2.146,14.774.406,29.471.174,44.07-2.553a162.651,162.651,0,0,0,40.513-13.3,164.515,164.515,0,0,0,59.037-48.131c16.166-21.213,26.821-46.391,28.658-73.115.967-13.942.232-28.774-4.409-42.078a72.108,72.108,0,0,0-21.1-30.708c-17.095-14.754-42.04-21.561-64.143-16.089-1.3.329-2.591.7-3.886.909.387.387.464,1.2.638,1.721.387,1.122.754,2.262,1.1,3.4q1.189,3.771,2.089,7.6a136.524,136.524,0,0,1,2.495,14.252,159.069,159.069,0,0,1,.7,30.186c-1.354,19.164-5.724,38.366-13.807,55.866-15.141,32.8-48.073,55.615-82.842,63.446-35.581,8.006-73.541-.445-103.823-20.343C70.8,420.3,48.565,391.082,30.755,360.838A220.5,220.5,0,0,1,7.55,307.022,216.546,216.546,0,0,1,.009,251.891a.026.026,0,0,1,0-.039,253.4,253.4,0,0,1,34.3-123.973A258.922,258.922,0,0,1,77.455,72.574a255.664,255.664,0,0,1,58.477-42.659A260.618,260.618,0,0,1,202.976,5.55,249.906,249.906,0,0,1,245.6.193c.754-.019,1.508-.058,2.282-.077.948-.039,1.914-.058,2.862-.077C252.325,0,253.91,0,255.515,0q6.672,0,13.3.348a250.26,250.26,0,0,1,28.175,2.959c-.213,0-.425-.019-.638-.019-14.832-.406-29.606-.193-44.225,2.553a162.382,162.382,0,0,0-40.512,13.3,164.352,164.352,0,0,0-59.038,48.131c-16.166,21.213-26.821,46.391-28.658,73.115-.967,13.942-.232,28.774,4.39,42.078a72.282,72.282,0,0,0,21.1,30.708c17.095,14.755,42.04,21.561,64.162,16.089,1.276-.329,2.572-.7,3.887-.909a4.629,4.629,0,0,1-.658-1.721c-.367-1.122-.735-2.263-1.1-3.4-.773-2.514-1.47-5.047-2.069-7.6a136.583,136.583,0,0,1-2.514-14.252,157.444,157.444,0,0,1-.677-30.186c1.334-19.163,5.724-38.366,13.788-55.866,15.16-32.8,48.073-55.615,82.842-63.446,35.6-8.006,73.56.445,103.842,20.343,29.645,19.473,51.883,48.692,69.693,78.936a221.173,221.173,0,0,1,23.186,53.816A215.881,215.881,0,0,1,511.351,260.225Z"/><path class="cls-2" d="M206.213,231.283c-12.434,1.776-22.074,2.41-34.049-1.63A73.871,73.871,0,0,1,142.288,210.4c-8.458-8.954-16.961-22.576-19.813-34.569-3.2-13.438-3.435-27.736-1.877-41.412,2.886-25.349,15.387-50.339,31.1-70.26,15.273-19.362,35.339-35.975,57.53-46.732C234.778,5.038,264.849,2.031,293.111,3.079a34.719,34.719,0,0,1,5.682.479A163.182,163.182,0,0,0,200.15,169.816a161.644,161.644,0,0,0,6.116,30.868q2.238,7.408,5.182,14.578,1.4,3.4,2.95,6.74c.907,1.951,2.619,4.609,3.139,6.687l-4.626,1.464Z"/><path class="cls-3" d="M511.351,260.225v.019q.029,2.465,0,4.931-.116,7.687-.754,15.354a233.772,233.772,0,0,1-5.646,36.993A256.1,256.1,0,0,1,288.679,509.969q-11.428,1.45-22.934,1.837c-.774.019-1.547.058-2.321.077-.908.039-1.837.058-2.746.077-1.624.039-3.229.039-4.854.039-1.876,0-3.751-.019-5.646-.077-6.092-.135-12.183-.5-18.255-1.064-5.608-.541-11.216-1.238-16.766-2.146,14.774.406,29.471.174,44.07-2.553a162.651,162.651,0,0,0,40.513-13.3,164.515,164.515,0,0,0,59.037-48.131c16.166-21.213,26.821-46.391,28.658-73.115.967-13.942.232-28.774-4.409-42.078a72.108,72.108,0,0,0-21.1-30.708c-17.095-14.754-42.04-21.561-64.143-16.089-1.3.329-2.591.7-3.886.909.387.387.464,1.2.638,1.721.387,1.122.754,2.262,1.1,3.4q1.189,3.771,2.089,7.6a136.524,136.524,0,0,1,2.495,14.252,159.069,159.069,0,0,1,.7,30.186c-1.354,19.164-5.724,38.366-13.807,55.866-15.141,32.8-48.073,55.615-82.842,63.446-35.581,8.006-73.541-.445-103.823-20.343C70.8,420.3,48.565,391.082,30.755,360.838A220.5,220.5,0,0,1,7.55,307.022,216.546,216.546,0,0,1,.009,251.891a.026.026,0,0,1,0-.039,253.4,253.4,0,0,1,34.3-123.973A258.922,258.922,0,0,1,77.455,72.574a255.664,255.664,0,0,1,58.477-42.659A260.618,260.618,0,0,1,202.976,5.55,249.906,249.906,0,0,1,245.6.193c.754-.019,1.508-.058,2.282-.077.948-.039,1.914-.058,2.862-.077C252.325,0,253.91,0,255.515,0q6.672,0,13.3.348a250.26,250.26,0,0,1,28.175,2.959c-.213,0-.425-.019-.638-.019-14.832-.406-29.606-.193-44.225,2.553a162.382,162.382,0,0,0-40.512,13.3,164.352,164.352,0,0,0-59.038,48.131c-16.166,21.213-26.821,46.391-28.658,73.115-.967,13.942-.232,28.774,4.39,42.078a72.282,72.282,0,0,0,21.1,30.708c17.095,14.755,42.04,21.561,64.162,16.089,1.276-.329,2.572-.7,3.887-.909a4.629,4.629,0,0,1-.658-1.721c-.367-1.122-.735-2.263-1.1-3.4-.773-2.514-1.47-5.047-2.069-7.6a136.583,136.583,0,0,1-2.514-14.252,157.444,157.444,0,0,1-.677-30.186c1.334-19.163,5.724-38.366,13.788-55.866,15.16-32.8,48.073-55.615,82.842-63.446,35.6-8.006,73.56.445,103.842,20.343,29.645,19.473,51.883,48.692,69.693,78.936a221.173,221.173,0,0,1,23.186,53.816A215.881,215.881,0,0,1,511.351,260.225Z"/></svg>